<svg xmlns="http://www.w3.org/2000/svg" viewBox="0 0 100 100" width="100" height="100">
<defs><linearGradient id="g" x1="0" y1="0" x2="1" y2="1"><stop offset="0" stop-color="#7CB55E"/><stop offset="1" stop-color="#3E6E31"/></linearGradient></defs>
<path d="M52 6C26 16 12 40 17 63c4 17 19 25 35 22 21-4 34-23 33-46C84 22 71 11 52 6Z" fill="url(#g)"/>
<path d="M52 6c-8 22-9 50-2 82" fill="none" stroke="#2B5124" stroke-width="4" stroke-linecap="round" opacity=".85"/>
<g fill="none" stroke="#2B5124" stroke-width="2.4" stroke-linecap="round" opacity=".5">
<path d="M48 30 28 24M50 48 24 43M51 66 27 68M51 33l21-12M52 51l25-9M52 69l21-4"/></g>
</svg>
